<svg xmlns="http://www.w3.org/2000/svg" shape-rendering="geometricPrecision" text-rendering="geometricPrecision" image-rendering="optimizeQuality" fill-rule="evenodd" clip-rule="evenodd" viewBox="0 0 512 356.18">
  <path fill="#E03C31" fill-rule="nonzero" d="M512 178.403H205.62L0 41.323V28.14C0 12.663 12.663 0 28.137 0H483.86C499.337 0 512 12.663 512 28.14v150.263z"/>
  <path fill="#001489" fill-rule="nonzero" d="M512 178.403H205.62L0 315.484v12.556c0 15.477 12.663 28.14 28.137 28.14H483.86c15.477 0 28.14-12.663 28.14-28.14V178.403z"/>
  <path fill="#fff" d="M223.631 237.885L46.189 356.18H28.137C12.663 356.18 0 343.517 0 328.04V28.14C0 12.663 12.663 0 28.137 0h17.111l178.383 118.921H512v118.964H223.631z"/>
  <path fill="none" d="M205.62 178.403L0 315.484"/>
  <path fill="#FFB81C" d="M.444 23.166l222.505 160.335L2.637 339.897A27.885 27.885 0 010 328.04v-84.045l98.388-65.592L0 112.812V28.14c0-1.697.153-3.358.444-4.974z"/>
  <path fill="#007749" d="M216.427 214.092L11.511 350.703C4.542 345.568 0 337.309 0 328.04v-55.45l141.281-94.187L0 84.216V28.14c0-9.072 4.351-17.176 11.069-22.33l205.358 136.905H512v71.377H216.427z"/>
  <path d="M98.388 178.403L0 112.812v131.182z"/>
</svg>
