<?xml version="1.0" encoding="UTF-8" standalone="no"?>
<svg viewBox="0 0 1600 1600" xmlns="http://www.w3.org/2000/svg">
  <!-- Styles -->
  <style>
    .entity {
      fill: #f8f9fa;
      stroke: #495057;
      stroke-width: 2;
      filter: drop-shadow(2px 2px 3px rgba(0,0,0,0.2));
    }
    .entity-title {
      fill: #212529;
      font-family: Arial, sans-serif;
      font-size: 16px;
      font-weight: bold;
      text-anchor: middle;
    }
    .entity-attr {
      fill: #495057;
      font-family: Arial, sans-serif;
      font-size: 12px;
    }
    .pk {
      font-weight: bold;
      fill: #0d6efd;
    }
    .fk {
      font-style: italic;
      fill: #6610f2;
    }
    .relationship {
      stroke: #6c757d;
      stroke-width: 1.5;
      fill: none;
      marker-end: url(#arrowhead);
    }
    .cardinality {
      fill: #212529;
      font-family: Arial, sans-serif;
      font-size: 12px;
      font-weight: bold;
    }
    .section-title {
      fill: #0d6efd;
      font-family: Arial, sans-serif;
      font-size: 24px;
      font-weight: bold;
    }
    .section-box {
      fill: #e9ecef;
      stroke: #adb5bd;
      stroke-width: 1;
      stroke-dasharray: 4;
      opacity: 0.7;
      rx: 10;
      ry: 10;
    }
    .highlight {
      fill: #b5ffc9;
      stroke: #28a745;
    }
  </style>
  
  <!-- Arrow Marker -->
  <defs>
    <marker id="arrowhead" markerWidth="10" markerHeight="7" refX="10" refY="3.5" orient="auto">
      <polygon points="0 0, 10 3.5, 0 7" fill="#6c757d" />
    </marker>
  </defs>
  
  <!-- Background -->
  <rect width="100%" height="100%" fill="white"/>
  
  <!-- Section Backgrounds -->
  <!-- Users & Auth -->
  <rect x="40" y="40" width="440" height="350" class="section-box"/>
  <!-- Store & Terminals -->
  <rect x="40" y="430" width="440" height="280" class="section-box"/>
  <!-- Customers -->
  <rect x="40" y="750" width="440" height="350" class="section-box"/>
  <!-- Products -->
  <rect x="520" y="40" width="520" height="450" class="section-box"/>
  <!-- Inventory -->
  <rect x="520" y="530" width="520" height="440" class="section-box"/>
  <!-- Sales -->
  <rect x="1080" y="40" width="480" height="520" class="section-box"/>
  <!-- Additional Features -->
  <rect x="1080" y="600" width="480" height="370" class="section-box"/>
  <!-- Promotions & Discounts -->
  <rect x="520" y="1010" width="520" height="350" class="section-box"/>
  <!-- Orders -->
  <rect x="1080" y="1010" width="480" height="350" class="section-box"/>
  
  <!-- Section Titles -->
  <text x="260" y="80" class="section-title" text-anchor="middle">Users &amp; Authentication</text>
  <text x="260" y="470" class="section-title" text-anchor="middle">Stores &amp; Terminals</text>
  <text x="260" y="790" class="section-title" text-anchor="middle">Customers</text>
  <text x="780" y="80" class="section-title" text-anchor="middle">Products &amp; Categories</text>
  <text x="780" y="570" class="section-title" text-anchor="middle">Inventory Management</text>
  <text x="1320" y="80" class="section-title" text-anchor="middle">Sales &amp; Payments</text>
  <text x="1320" y="640" class="section-title" text-anchor="middle">Additional Features</text>
  <text x="780" y="1050" class="section-title" text-anchor="middle">Promotions &amp; Discounts</text>
  <text x="1320" y="1050" class="section-title" text-anchor="middle">Orders</text>
  
  <!-- USERS & AUTHENTICATION SECTION -->
  <!-- Users -->
  <rect x="80" y="100" width="180" height="140" rx="5" class="entity"/>
  <text x="170" y="125" class="entity-title">Users</text>
  <line x1="80" y1="130" x2="260" y2="130" stroke="#495057" stroke-width="1"/>
  <text x="90" y="150" class="entity-attr pk">user_id (PK)</text>
  <text x="90" y="170" class="entity-attr">username</text>
  <text x="90" y="190" class="entity-attr">email</text>
  <text x="90" y="210" class="entity-attr">password_hash</text>
  <text x="90" y="230" class="entity-attr">created_at</text>
  
  <!-- Roles -->
  <rect x="80" y="270" width="180" height="110" rx="5" class="entity"/>
  <text x="170" y="295" class="entity-title">Roles</text>
  <line x1="80" y1="300" x2="260" y2="300" stroke="#495057" stroke-width="1"/>
  <text x="90" y="320" class="entity-attr pk">role_id (PK)</text>
  <text x="90" y="340" class="entity-attr">name</text>
  <text x="90" y="360" class="entity-attr">permissions</text>
  
  <!-- User_Roles -->
  <rect x="280" y="190" width="180" height="90" rx="5" class="entity"/>
  <text x="370" y="215" class="entity-title">User_Roles</text>
  <line x1="280" y1="220" x2="460" y2="220" stroke="#495057" stroke-width="1"/>
  <text x="290" y="240" class="entity-attr pk">user_role_id (PK)</text>
  <text x="290" y="260" class="entity-attr fk">user_id (FK)</text>
  <text x="290" y="280" class="entity-attr fk">role_id (FK)</text>
  
  <!-- STORES & TERMINALS SECTION -->
  <!-- Stores -->
  <rect x="80" y="500" width="180" height="140" rx="5" class="entity"/>
  <text x="170" y="525" class="entity-title">Stores</text>
  <line x1="80" y1="530" x2="260" y2="530" stroke="#495057" stroke-width="1"/>
  <text x="90" y="550" class="entity-attr pk">store_id (PK)</text>
  <text x="90" y="570" class="entity-attr">name</text>
  <text x="90" y="590" class="entity-attr">address</text>
  <text x="90" y="610" class="entity-attr">contact_info</text>
  <text x="90" y="630" class="entity-attr">created_at</text>
  
  <!-- Terminals -->
  <rect x="280" y="500" width="180" height="110" rx="5" class="entity"/>
  <text x="370" y="525" class="entity-title">Terminals</text>
  <line x1="280" y1="530" x2="460" y2="530" stroke="#495057" stroke-width="1"/>
  <text x="290" y="550" class="entity-attr pk">terminal_id (PK)</text>
  <text x="290" y="570" class="entity-attr fk">store_id (FK)</text>
  <text x="290" y="590" class="entity-attr">name</text>
  <text x="290" y="610" class="entity-attr">status</text>
  
  <!-- CUSTOMERS SECTION -->
  <!-- Customers -->
  <rect x="80" y="820" width="180" height="140" rx="5" class="entity"/>
  <text x="170" y="845" class="entity-title">Customers</text>
  <line x1="80" y1="850" x2="260" y2="850" stroke="#495057" stroke-width="1"/>
  <text x="90" y="870" class="entity-attr pk">customer_id (PK)</text>
  <text x="90" y="890" class="entity-attr">name</text>
  <text x="90" y="910" class="entity-attr">email</text>
  <text x="90" y="930" class="entity-attr">phone</text>
  <text x="90" y="950" class="entity-attr">address</text>
  
  <!-- Customer Groups (NEW) -->
  <rect x="280" y="820" width="180" height="100" rx="5" class="entity highlight"/>
  <text x="370" y="845" class="entity-title">Customer_Groups</text>
  <line x1="280" y1="850" x2="460" y2="850" stroke="#495057" stroke-width="1"/>
  <text x="290" y="870" class="entity-attr pk">group_id (PK)</text>
  <text x="290" y="890" class="entity-attr">name</text>
  <text x="290" y="910" class="entity-attr">description</text>
  
  <!-- Customer Group Memberships (NEW) -->
  <rect x="180" y="980" width="200" height="90" rx="5" class="entity highlight"/>
  <text x="280" y="1005" class="entity-title">Customer_Group_Members</text>
  <line x1="180" y1="1010" x2="380" y2="1010" stroke="#495057" stroke-width="1"/>
  <text x="190" y="1030" class="entity-attr pk">membership_id (PK)</text>
  <text x="190" y="1050" class="entity-attr fk">customer_id (FK)</text>
  <text x="190" y="1070" class="entity-attr fk">group_id (FK)</text>
  
  <!-- PRODUCTS SECTION -->
  <!-- Categories -->
  <rect x="560" y="100" width="200" height="100" rx="5" class="entity"/>
  <text x="660" y="125" class="entity-title">Categories</text>
  <line x1="560" y1="130" x2="760" y2="130" stroke="#495057" stroke-width="1"/>
  <text x="570" y="150" class="entity-attr pk">category_id (PK)</text>
  <text x="570" y="170" class="entity-attr">name</text>
  <text x="570" y="190" class="entity-attr fk">parent_category_id (FK)</text>
  
  <!-- Suppliers -->
  <rect x="800" y="100" width="200" height="100" rx="5" class="entity"/>
  <text x="900" y="125" class="entity-title">Suppliers</text>
  <line x1="800" y1="130" x2="1000" y2="130" stroke="#495057" stroke-width="1"/>
  <text x="810" y="150" class="entity-attr pk">supplier_id (PK)</text>
  <text x="810" y="170" class="entity-attr">name</text>
  <text x="810" y="190" class="entity-attr">contact_info</text>
  
  <!-- Products -->
  <rect x="560" y="240" width="200" height="160" rx="5" class="entity"/>
  <text x="660" y="265" class="entity-title">Products</text>
  <line x1="560" y1="270" x2="760" y2="270" stroke="#495057" stroke-width="1"/>
  <text x="570" y="290" class="entity-attr pk">product_id (PK)</text>
  <text x="570" y="310" class="entity-attr fk">category_id (FK)</text>
  <text x="570" y="330" class="entity-attr fk">supplier_id (FK)</text>
  <text x="570" y="350" class="entity-attr">name</text>
  <text x="570" y="370" class="entity-attr">description</text>
  <text x="570" y="390" class="entity-attr">base_price</text>
  
  <!-- Product Variants -->
  <rect x="800" y="240" width="200" height="160" rx="5" class="entity"/>
  <text x="900" y="265" class="entity-title">Product_Variants</text>
  <line x1="800" y1="270" x2="1000" y2="270" stroke="#495057" stroke-width="1"/>
  <text x="810" y="290" class="entity-attr pk">variant_id (PK)</text>
  <text x="810" y="310" class="entity-attr fk">product_id (FK)</text>
  <text x="810" y="330" class="entity-attr">sku</text>
  <text x="810" y="350" class="entity-attr">attributes</text>
  <text x="810" y="370" class="entity-attr">price_adjustment</text>
  <text x="810" y="390" class="entity-attr">barcode</text>
  
  <!-- Product Expiry Tracking (NEW) -->
  <rect x="680" y="430" width="200" height="110" rx="5" class="entity highlight"/>
  <text x="780" y="455" class="entity-title">Product_Expiry</text>
  <line x1="680" y1="460" x2="880" y2="460" stroke="#495057" stroke-width="1"/>
  <text x="690" y="480" class="entity-attr pk">expiry_id (PK)</text>
  <text x="690" y="500" class="entity-attr fk">variant_id (FK)</text>
  <text x="690" y="520" class="entity-attr">batch_number</text>
  <text x="690" y="540" class="entity-attr">expiry_date</text>
  
  <!-- INVENTORY SECTION -->
  <!-- Inventory -->
  <rect x="560" y="600" width="200" height="150" rx="5" class="entity"/>
  <text x="660" y="625" class="entity-title">Inventory</text>
  <line x1="560" y1="630" x2="760" y2="630" stroke="#495057" stroke-width="1"/>
  <text x="570" y="650" class="entity-attr pk">inventory_id (PK)</text>
  <text x="570" y="670" class="entity-attr fk">store_id (FK)</text>
  <text x="570" y="690" class="entity-attr fk">variant_id (FK)</text>
  <text x="570" y="710" class="entity-attr">quantity</text>
  <text x="570" y="730" class="entity-attr">reorder_level</text>
  <text x="570" y="750" class="entity-attr">last_updated</text>
  
  <!-- Inventory Movements -->
  <rect x="800" y="600" width="200" height="150" rx="5" class="entity"/>
  <text x="900" y="625" class="entity-title">Inventory_Movements</text>
  <line x1="800" y1="630" x2="1000" y2="630" stroke="#495057" stroke-width="1"/>
  <text x="810" y="650" class="entity-attr pk">movement_id (PK)</text>
  <text x="810" y="670" class="entity-attr fk">variant_id (FK)</text>
  <text x="810" y="690" class="entity-attr fk">store_id (FK)</text>
  <text x="810" y="710" class="entity-attr">quantity</text>
  <text x="810" y="730" class="entity-attr">type</text>
  <text x="810" y="750" class="entity-attr">timestamp</text>
  
  <!-- Stock Alerts (NEW) -->
  <rect x="680" y="780" width="200" height="130" rx="5" class="entity highlight"/>
  <text x="780" y="805" class="entity-title">Stock_Alerts</text>
  <line x1="680" y1="810" x2="880" y2="810" stroke="#495057" stroke-width="1"/>
  <text x="690" y="830" class="entity-attr pk">alert_id (PK)</text>
  <text x="690" y="850" class="entity-attr fk">inventory_id (FK)</text>
  <text x="690" y="870" class="entity-attr">alert_type</text>
  <text x="690" y="890" class="entity-attr">threshold</text>
  <text x="690" y="910" class="entity-attr">is_active</text>
  
  <!-- SALES SECTION -->
  <!-- Sales -->
  <rect x="1120" y="100" width="200" height="180" rx="5" class="entity"/>
  <text x="1220" y="125" class="entity-title">Sales</text>
  <line x1="1120" y1="130" x2="1320" y2="130" stroke="#495057" stroke-width="1"/>
  <text x="1130" y="150" class="entity-attr pk">sale_id (PK)</text>
  <text x="1130" y="170" class="entity-attr fk">store_id (FK)</text>
  <text x="1130" y="190" class="entity-attr fk">terminal_id (FK)</text>
  <text x="1130" y="210" class="entity-attr fk">customer_id (FK)</text>
  <text x="1130" y="230" class="entity-attr fk">user_id (FK)</text>
  <text x="1130" y="250" class="entity-attr">total_amount</text>
  <text x="1130" y="270" class="entity-attr">sale_date</text>
  
  <!-- Sale Items -->
  <rect x="1340" y="100" width="200" height="150" rx="5" class="entity"/>
  <text x="1440" y="125" class="entity-title">Sale_Items</text>
  <line x1="1340" y1="130" x2="1540" y2="130" stroke="#495057" stroke-width="1"/>
  <text x="1350" y="150" class="entity-attr pk">sale_item_id (PK)</text>
  <text x="1350" y="170" class="entity-attr fk">sale_id (FK)</text>
  <text x="1350" y="190" class="entity-attr fk">variant_id (FK)</text>
  <text x="1350" y="210" class="entity-attr">quantity</text>
  <text x="1350" y="230" class="entity-attr">unit_price</text>
  <text x="1350" y="250" class="entity-attr">discount</text>
  
  <!-- Payments -->
  <rect x="1220" y="320" width="200" height="130" rx="5" class="entity"/>
  <text x="1320" y="345" class="entity-title">Payments</text>
  <line x1="1220" y1="350" x2="1420" y2="350" stroke="#495057" stroke-width="1"/>
  <text x="1230" y="370" class="entity-attr pk">payment_id (PK)</text>
  <text x="1230" y="390" class="entity-attr fk">sale_id (FK)</text>
  <text x="1230" y="410" class="entity-attr">amount</text>
  <text x="1230" y="430" class="entity-attr">payment_method</text>
  <text x="1230" y="450" class="entity-attr">timestamp</text>
  
  <!-- Invoices & Receipts (NEW) -->
  <rect x="1120" y="480" width="200" height="130" rx="5" class="entity highlight"/>
  <text x="1220" y="505" class="entity-title">Invoices</text>
  <line x1="1120" y1="510" x2="1320" y2="510" stroke="#495057" stroke-width="1"/>
  <text x="1130" y="530" class="entity-attr pk">invoice_id (PK)</text>
  <text x="1130" y="550" class="entity-attr fk">sale_id (FK)</text>
  <text x="1130" y="570" class="entity-attr">invoice_number</text>
  <text x="1130" y="590" class="entity-attr">issued_date</text>
  <text x="1130" y="610" class="entity-attr">due_date</text>
  
  <!-- ADDITIONAL FEATURES -->
  <!-- Translations -->
  <rect x="1120" y="680" width="200" height="130" rx="5" class="entity"/>
  <text x="1220" y="705" class="entity-title">Translations</text>
  <line x1="1120" y1="710" x2="1320" y2="710" stroke="#495057" stroke-width="1"/>
  <text x="1130" y="730" class="entity-attr pk">translation_id (PK)</text>
  <text x="1130" y="750" class="entity-attr">entity_type</text>
  <text x="1130" y="770" class="entity-attr">entity_id</text>
  <text x="1130" y="790" class="entity-attr">language_code</text>
  <text x="1130" y="810" class="entity-attr">translated_text</text>
  
  <!-- Expenses -->
  <rect x="1340" y="680" width="200" height="130" rx="5" class="entity"/>
  <text x="1440" y="705" class="entity-title">Expenses</text>
  <line x1="1340" y1="710" x2="1540" y2="710" stroke="#495057" stroke-width="1"/>
  <text x="1350" y="730" class="entity-attr pk">expense_id (PK)</text>
  <text x="1350" y="750" class="entity-attr fk">store_id (FK)</text>
  <text x="1350" y="770" class="entity-attr fk">user_id (FK)</text>
  <text x="1350" y="790" class="entity-attr">amount</text>
  <text x="1350" y="810" class="entity-attr">description</text>
  
  <!-- Audit Logs -->
  <rect x="1220" y="830" width="200" height="140" rx="5" class="entity"/>
  <text x="1320" y="855" class="entity-title">Audit_Logs</text>
  <line x1="1220" y1="860" x2="1420" y2="860" stroke="#495057" stroke-width="1"/>
  <text x="1230" y="880" class="entity-attr pk">log_id (PK)</text>
  <text x="1230" y="900" class="entity-attr fk">user_id (FK)</text>
  <text x="1230" y="920" class="entity-attr">action</text>
  <text x="1230" y="940" class="entity-attr">entity_type</text>
  <text x="1230" y="960" class="entity-attr">entity_id</text>
  
  <!-- PROMOTIONS & DISCOUNTS SECTION (NEW) -->
  <!-- Discounts -->
  <rect x="560" y="1090" width="200" height="130" rx="5" class="entity highlight"/>
  <text x="660" y="1115" class="entity-title">Discounts</text>
  <line x1="560" y1="1120" x2="760" y2="1120" stroke="#495057" stroke-width="1"/>
  <text x="570" y="1140" class="entity-attr pk">discount_id (PK)</text>
  <text x="570" y="1160" class="entity-attr">name</text>
  <text x="570" y="1180" class="entity-attr">discount_type</text>
  <text x="570" y="1200" class="entity-attr">value</text>
  <text x="570" y="1220" class="entity-attr">active_until</text>
  
  <!-- Coupons -->
  <rect x="800" y="1090" width="200" height="130" rx="5" class="entity highlight"/>
  <text x="900" y="1115" class="entity-title">Coupons</text>
  <line x1="800" y1="1120" x2="1000" y2="1120" stroke="#495057" stroke-width="1"/>
  <text x="810" y="1140" class="entity-attr pk">coupon_id (PK)</text>
  <text x="810" y="1160" class="entity-attr">code</text>
  <text x="810" y="1180" class="entity-attr fk">discount_id (FK)</text>
  <text x="810" y="1200" class="entity-attr">usage_limit</text>
  <text x="810" y="1220" class="entity-attr">times_used</text>
  
  <!-- Loyalty Points (NEW) -->
  <rect x="680" y="1240" width="200" height="110" rx="5" class="entity highlight"/>
  <text x="780" y="1265" class="entity-title">Loyalty_Points</text>
  <line x1="680" y1="1270" x2="880" y2="1270" stroke="#495057" stroke-width="1"/>
  <text x="690" y="1290" class="entity-attr pk">loyalty_id (PK)</text>
  <text x="690" y="1310" class="entity-attr fk">customer_id (FK)</text>
  <text x="690" y="1330" class="entity-attr">points_balance</text>
  <text x="690" y="1350" class="entity-attr">updated_at</text>
  
  <!-- ORDERS SECTION (NEW) -->
  <!-- Orders -->
  <rect x="1120" y="1090" width="200" height="150" rx="5" class="entity highlight"/>
  <text x="1220" y="1115" class="entity-title">Orders</text>
  <line x1="1120" y1="1120" x2="1320" y2="1120" stroke="#495057" stroke-width="1"/>
  <text x="1130" y="1140" class="entity-attr pk">order_id (PK)</text>
  <text x="1130" y="1160" class="entity-attr fk">customer_id (FK)</text>
  <text x="1130" y="1180" class="entity-attr fk">store_id (FK)</text>
  <text x="1130" y="1200" class="entity-attr">status</text>
  <text x="1130" y="1220" class="entity-attr">created_at</text>
  <text x="1130" y="1240" class="entity-attr">updated_at</text>
  
  <!-- Order Items -->
  <rect x="1340" y="1090" width="200" height="130" rx="5" class="entity highlight"/>
  <text x="1440" y="1115" class="entity-title">Order_Items</text>
  <line x1="1340" y1="1120" x2="1540" y2="1120" stroke="#495057" stroke-width="1"/>
  <text x="1350" y="1140" class="entity-attr pk">order_item_id (PK)</text>
  <text x="1350" y="1160" class="entity-attr fk">order_id (FK)</text>
  <text x="1350" y="1180" class="entity-attr fk">variant_id (FK)</text>
  <text x="1350" y="1200" class="entity-attr">quantity</text>
  <text x="1350" y="1220" class="entity-attr">price</text>
  
  <!-- Customer Feedback (NEW) -->
  <rect x="1220" y="1260" width="200" height="120" rx="5" class="entity highlight"/>
  <text x="1320" y="1285" class="entity-title">Customer_Feedback</text>
  <line x1="1220" y1="1290" x2="1420" y2="1290" stroke="#495057" stroke-width="1"/>
  <text x="1230" y="1310" class="entity-attr pk">feedback_id (PK)</text>
  <text x="1230" y="1330" class="entity-attr fk">customer_id (FK)</text>
  <text x="1230" y="1350" class="entity-attr fk">product_id (FK)</text>
  <text x="1230" y="1370" class="entity-attr">rating</text>
  
  <!-- Relationships -->
  <!-- Users to User_Roles -->
  <path d="M260,170 L370,170 L370,190" class="relationship"/>
  <text x="265" y="165" class="cardinality">1</text>
  <text x="365" y="185" class="cardinality">N</text>
  
  <!-- Roles to User_Roles -->
  <path d="M260,290 L350,290 L350,280" class="relationship"/>
  <text x="265" y="285" class="cardinality">1</text>
  <text x="345" y="285" class="cardinality">N</text>
  
  <!-- Stores to Terminals -->
  <path d="M260,550 L280,550" class="relationship"/>
  <text x="265" y="545" class="cardinality">1</text>
  <text x="275" y="545" class="cardinality">N</text>
  
  <!-- Categories self-relation -->
  <path d="M760,170 Q780,170 780,150 Q780,130 760,130" class="relationship" stroke-dasharray="4"/>
  <text x="770" y="145" class="cardinality">1</text>
  <text x="770" y="165" class="cardinality">N</text>
  
  <!-- Categories to Products -->
  <path d="M660,200 L660,240" class="relationship"/>
  <text x="650" y="220" class="cardinality">1</text>
  <text x="650" y="240" class="cardinality">N</text>
</svg>